<svg width="18" height="18" viewBox="0 0 18 18" fill="none" xmlns="http://www.w3.org/2000/svg">
<g clip-path="url(#clip0_5_2)">
<path d="M7.33501 7.14999C8.99186 7.14999 10.335 5.80685 10.335 4.14999C10.335 2.49314 8.99186 1.14999 7.33501 1.14999C5.67815 1.14999 4.33501 2.49314 4.33501 4.14999C4.33501 5.80685 5.67815 7.14999 7.33501 7.14999Z" fill="white"/>
<path d="M8.22 15.91C8.05477 15.7466 7.94694 15.534 7.91269 15.3041C7.87844 15.0743 7.91959 14.8395 8.03 14.635L8.295 14.135L7.75 13.97C7.52776 13.9004 7.33427 13.7603 7.19892 13.5708C7.06356 13.3813 6.99372 13.1528 7 12.92V11.895C6.99958 11.6632 7.07373 11.4375 7.21149 11.2511C7.34925 11.0647 7.54331 10.9276 7.765 10.86L8.31 10.695L8.05 10.195C7.94283 9.99329 7.90205 9.76291 7.93347 9.53667C7.9649 9.31042 8.06692 9.09987 8.225 8.935C7.84033 8.88468 7.45294 8.85796 7.065 8.855C5.91916 8.82803 4.78149 9.05424 3.73312 9.51749C2.68475 9.98074 1.75153 10.6696 1 11.535V15.41C1 15.5426 1.05268 15.6698 1.14645 15.7636C1.24021 15.8573 1.36739 15.91 1.5 15.91H8.22Z" fill="white"/>
<path d="M16.85 11.73L15.85 11.43C15.7808 11.183 15.6835 10.9448 15.56 10.72L16.06 9.79002C16.0793 9.7555 16.0864 9.71545 16.08 9.67641C16.0737 9.63736 16.0543 9.60162 16.025 9.57501L15.3 8.84502C15.2721 8.81784 15.2365 8.79991 15.198 8.79364C15.1596 8.78738 15.1201 8.7931 15.085 8.81002L14.16 9.31002C13.9324 9.18621 13.6928 9.0857 13.445 9.01002L13.14 8.01002C13.1266 7.97314 13.1021 7.94133 13.0698 7.91895C13.0376 7.89657 12.9992 7.88471 12.96 7.88502H11.92C11.881 7.8861 11.8433 7.89916 11.812 7.92242C11.7807 7.94568 11.7573 7.97801 11.745 8.01502L11.445 9.01502C11.1926 9.08912 10.9494 9.19143 10.72 9.32001L9.81501 8.82001C9.77982 8.80132 9.73965 8.79415 9.70017 8.79953C9.66069 8.80492 9.6239 8.82258 9.59501 8.85002L8.86001 9.57001C8.83107 9.59791 8.812 9.63446 8.80568 9.67416C8.79937 9.71385 8.80615 9.75452 8.82501 9.79002L9.32501 10.7C9.19092 10.9258 9.08194 11.1655 9.00001 11.415L8.00001 11.72C7.96218 11.731 7.92898 11.754 7.9055 11.7856C7.88202 11.8172 7.86955 11.8556 7.87001 11.895V12.92C7.86955 12.9594 7.88202 12.9978 7.9055 13.0294C7.92898 13.061 7.96218 13.0841 8.00001 13.095L9.00001 13.4C9.075 13.6449 9.17555 13.8812 9.30001 14.105L8.80001 15.055C8.78115 15.0905 8.77437 15.1312 8.78068 15.1709C8.787 15.2106 8.80607 15.2471 8.83501 15.275L9.58001 16C9.6089 16.0275 9.64569 16.0451 9.68517 16.0505C9.72465 16.0559 9.76482 16.0487 9.80001 16.03L10.735 15.53C10.9574 15.65 11.1921 15.7456 11.435 15.815L11.735 16.84C11.7476 16.8778 11.7717 16.9107 11.804 16.934C11.8363 16.9574 11.8752 16.97 11.915 16.97H12.94C12.979 16.9689 13.0167 16.9559 13.048 16.9326C13.0793 16.9094 13.1027 16.877 13.115 16.84L13.415 15.815C13.6549 15.746 13.8863 15.6504 14.105 15.53L15.05 16.03C15.0852 16.0487 15.1254 16.0559 15.1648 16.0505C15.2043 16.0451 15.2411 16.0275 15.27 16L16 15.275C16.0274 15.2461 16.0451 15.2093 16.0505 15.1699C16.0559 15.1304 16.0487 15.0902 16.03 15.055L15.53 14.115C15.6493 13.8958 15.7449 13.6645 15.815 13.425L16.815 13.12C16.8526 13.1079 16.8856 13.0847 16.9097 13.0535C16.9338 13.0222 16.9479 12.9844 16.95 12.945V11.91C16.9512 11.8738 16.9426 11.8379 16.925 11.8062C16.9073 11.7745 16.8814 11.7481 16.85 11.73ZM12.435 14.09C12.1045 14.091 11.7811 13.9939 11.5058 13.811C11.2306 13.6281 11.0157 13.3676 10.8886 13.0626C10.7614 12.7575 10.7276 12.4216 10.7915 12.0973C10.8554 11.773 11.014 11.475 11.2474 11.2409C11.4807 11.0069 11.7783 10.8473 12.1024 10.7825C12.4264 10.7176 12.7625 10.7504 13.0679 10.8767C13.3734 11.0029 13.6345 11.217 13.8182 11.4917C14.0019 11.7664 14.1 12.0895 14.1 12.42C14.1 12.8621 13.9247 13.2861 13.6126 13.5991C13.3005 13.9122 12.8771 14.0887 12.435 14.09Z" fill="white"/>
</g>
<defs>
<clipPath id="clip0_5_2">
<rect width="18" height="18" fill="white"/>
</clipPath>
</defs>
</svg>
