<svg width="16" height="16" viewBox="0 0 16 16" fill="rgb(69, 69, 69)" xmlns="http://www.w3.org/2000/svg">
<path d="M10.0703 2.67761L1.91975 7.02239L0.633972 10.458L0.860003 10.5783L5.66228 13.1346L15.3028 8.00286L14.123 4.88089L10.0703 2.67761ZM13.7901 5.65221L14.5748 7.72877L11.3698 9.43483L13.4497 5.83249L13.7901 5.65217V5.65221ZM10.9908 7.13399L8.90491 10.7469L7.60272 11.4401L9.85882 7.73318L10.9908 7.13396V7.13399ZM2.26188 7.77436L3.14344 8.24102L1.45557 9.92889L2.26188 7.77436ZM8.85022 8.26708L6.59969 11.9647L6.60782 11.9697L6.07007 12.2559L6.25116 9.64286L8.85022 8.26708ZM3.68353 8.52683L4.21363 8.80746L2.32472 10.6964L1.79566 10.4147L3.68353 8.52683ZM5.66938 9.59061L5.47644 12.3741L3.78582 11.4741L5.66938 9.59061Z" fill="rgb(69, 69, 69)"/>
</svg>
