<svg width="24" height="24" viewBox="0 0 24 24" fill="rgb(182, 231, 252)" xmlns="http://www.w3.org/2000/svg">
<g clip-path="url(#clip0_14_17)">
<path fill-rule="evenodd" clip-rule="evenodd" d="M5.00299 16.408C5.11832 16.0607 5.18499 15.7043 5.20299 15.339C5.20299 14.786 5.07999 14.24 4.84299 13.741C4.82166 13.6538 4.76667 13.5785 4.69004 13.5317C4.61341 13.4848 4.52136 13.4702 4.43399 13.491C4.3479 13.5146 4.27406 13.5701 4.22759 13.6464C4.18112 13.7226 4.16552 13.8137 4.18399 13.901C4.20399 14.1237 4.20399 14.3467 4.18399 14.57C4.13599 14.8207 4.07266 15.067 3.99399 15.309C3.99399 15.549 3.89399 15.799 3.82399 16.039C3.71128 16.4859 3.65418 16.9451 3.65399 17.406C3.66599 17.666 3.75299 17.916 3.90399 18.126C3.9579 18.2124 4.04275 18.275 4.14124 18.3011C4.23973 18.3271 4.34443 18.3145 4.43399 18.266C4.52067 18.2122 4.58283 18.1266 4.60713 18.0275C4.63143 17.9284 4.61594 17.8238 4.56399 17.736C4.50399 17.596 4.56399 17.466 4.56399 17.316C4.69066 17.004 4.83733 16.7013 5.00399 16.408M7.32999 18.625H6.96999C5.77199 18.625 5.76199 18.535 5.63299 18.755C5.39299 19.195 6.47199 19.754 6.89099 19.884C7.12899 19.944 7.37599 19.962 7.62099 19.934C8.99799 19.804 8.99799 19.464 8.99799 19.334C8.99799 19.204 9.12799 18.924 7.32999 18.625ZM23.281 17.127C23.1452 16.2119 22.7313 15.3607 22.0953 14.6888C21.4594 14.0169 20.6322 13.5569 19.726 13.371C18.8378 13.2234 17.9297 13.2438 17.049 13.431C16.1412 13.5802 15.2818 13.9432 14.542 14.49C13.4019 15.5129 12.6532 16.9005 12.424 18.415C12.2746 19.1693 12.3083 19.9484 12.5221 20.687C12.7359 21.4256 13.1237 22.1022 13.653 22.66C14.061 23.044 14.543 23.34 15.071 23.53C16.515 24.0568 18.0828 24.1434 19.576 23.779C20.6016 23.5243 21.5123 22.9336 22.163 22.101C22.6739 21.3895 23.0362 20.5824 23.2283 19.7278C23.4204 18.8732 23.4383 17.9887 23.281 17.127ZM13.483 18.605C13.7169 17.3743 14.3699 16.2626 15.331 15.459C15.9264 15.0474 16.6113 14.7834 17.329 14.689C18.0417 14.5376 18.776 14.5173 19.496 14.629C19.6987 14.6823 19.8953 14.7523 20.086 14.839C19.416 15.529 18.736 16.208 18.088 16.967C17.758 17.367 17.448 17.786 17.148 18.216C16.85 18.6397 16.5704 19.0761 16.31 19.524C15.75 20.523 15.31 21.472 14.822 22.45C14.6172 22.3471 14.4257 22.2195 14.252 22.07C13.8581 21.5949 13.583 21.0328 13.4493 20.4303C13.3156 19.8278 13.3271 19.2021 13.483 18.605ZM21.363 21.512C20.8747 22.1969 20.172 22.6994 19.366 22.94C18.0932 23.3197 16.7326 23.2846 15.481 22.84C16.18 21.841 16.939 20.842 17.678 19.774C18.068 19.224 18.448 18.665 18.827 18.106C19.207 17.546 19.566 16.977 19.955 16.428C20.235 16.028 20.535 15.638 20.825 15.249C21.5045 15.7755 21.9751 16.526 22.153 17.367C22.3063 18.0756 22.3153 18.8077 22.1796 19.5199C22.0439 20.232 21.7662 20.9095 21.363 21.512Z" fill="rgb(182, 231, 252)"/>
<path fill-rule="evenodd" clip-rule="evenodd" d="M17.159 8.80699C17.412 8.58199 17.575 8.27399 17.619 7.93699C17.6869 7.42761 17.7037 6.91271 17.669 6.39999C17.669 5.52999 17.599 4.67199 17.499 3.81299C17.399 2.95399 17.259 2.30499 17.089 1.56499C17.8631 2.57563 18.467 3.70582 18.877 4.91099C19.1915 5.80515 19.4451 6.71958 19.636 7.64799C19.926 9.08899 20.09 10.553 20.126 12.023C20.142 12.1132 20.1893 12.1949 20.2595 12.2537C20.3297 12.3126 20.4184 12.3448 20.51 12.3448C20.6016 12.3448 20.6903 12.3126 20.7605 12.2537C20.8307 12.1949 20.878 12.1132 20.894 12.023C21.0388 10.5515 21.0388 9.06944 20.894 7.59799C20.8112 6.96173 20.6876 6.33143 20.524 5.71099C20.351 5.08373 20.1173 4.47484 19.826 3.89299C19.546 3.33299 17.299 -0.322005 16.549 0.416995C16.231 0.526995 15.931 0.684995 15.661 0.886995C15.217 1.23699 14.85 1.67699 14.581 2.17499C14.2936 2.77881 14.0956 3.42119 13.993 4.08199C13.9215 5.04844 13.955 6.01979 14.093 6.97899C14.0981 7.0814 14.1424 7.17793 14.2166 7.24865C14.2909 7.31937 14.3895 7.35887 14.492 7.35899C14.5419 7.3577 14.5911 7.34658 14.6367 7.32628C14.6823 7.30597 14.7235 7.27688 14.7578 7.24066C14.7922 7.20444 14.8191 7.16181 14.8369 7.1152C14.8548 7.06858 14.8633 7.0189 14.862 6.96899C14.9036 6.21215 14.9904 5.45847 15.122 4.71199C15.172 4.42199 15.251 4.15199 15.321 3.86199C15.4143 3.44866 15.5443 3.04599 15.711 2.65399C15.828 2.25699 16.029 1.88899 16.3 1.57499C16.448 2.34566 16.5513 3.12166 16.61 3.90299C16.66 4.73199 16.67 5.57099 16.61 6.39999C16.61 6.57999 16.61 6.98899 16.56 7.39799C16.56 7.61799 16.56 7.84799 16.44 7.92799C15.996 8.19702 15.5038 8.37704 14.991 8.45799C14.1033 8.60098 13.2034 8.65425 12.305 8.61699C11.715 8.61699 11.125 8.55699 10.547 8.49699C9.967 8.43699 9.378 8.36699 8.789 8.26699L7.59 8.08699C7.59 8.08699 7.48 8.02699 7.46 7.95699C7.4181 7.80657 7.38801 7.6531 7.37 7.49799C7.34781 7.2555 7.34781 7.01149 7.37 6.76899C7.395 5.79099 7.491 4.81599 7.66 3.85299C7.774 3.23566 7.93067 2.62966 8.13 2.03499C8.13 2.12499 8.21 2.21499 8.24 2.30499C8.27 2.39499 8.39 2.75499 8.46 2.97399L8.769 3.97299C9.04367 4.85166 9.26667 5.74366 9.438 6.64899C9.44596 6.74964 9.49357 6.84301 9.57037 6.90856C9.64717 6.9741 9.74685 7.00645 9.8475 6.99849C9.94815 6.99054 10.0415 6.94292 10.1071 6.86613C10.1726 6.78933 10.205 6.68964 10.197 6.58899C10.225 5.77899 10.188 4.96699 10.087 4.16199C10.0395 3.8143 9.966 3.47066 9.867 3.13399C9.75955 2.79088 9.62582 2.45656 9.467 2.13399C9.07762 1.37715 8.54551 0.702761 7.9 0.147995C7.86807 0.108216 7.82651 0.0772381 7.77927 0.0579905C7.73202 0.0387428 7.68065 0.0318607 7.63 0.0379947C7.58561 0.0134824 7.53572 0.00062561 7.485 0.00062561C7.43429 0.00062561 7.3844 0.0134824 7.34 0.0379947C5.96459 1.01413 4.85552 2.31916 4.114 3.83399C3.37571 5.3095 2.84149 6.87854 2.526 8.49799L2.106 11.415L1.627 13.712C1.207 15.239 0.500004 17.097 0.630004 18.705C0.65924 19.3482 0.851407 19.9733 1.18847 20.5219C1.52554 21.0704 1.99645 21.5243 2.557 21.841C2.78234 21.9737 3.01567 22.0903 3.257 22.191C3.49567 22.291 3.74167 22.371 3.995 22.431C4.407 22.5377 4.82334 22.621 5.244 22.681C5.66734 22.7437 6.09334 22.7767 6.522 22.78C7.10067 22.79 7.67667 22.76 8.25 22.69C8.82267 22.628 9.38867 22.5313 9.948 22.4C9.9973 22.3904 10.0442 22.3712 10.086 22.3434C10.1278 22.3156 10.1637 22.2798 10.1916 22.2381C10.2195 22.1963 10.2389 22.1494 10.2485 22.1002C10.2582 22.0509 10.258 22.0002 10.248 21.951C10.2264 21.8504 10.1659 21.7625 10.0798 21.7063C9.99361 21.6501 9.88874 21.6302 9.788 21.651C9.25734 21.7537 8.72134 21.8237 8.18 21.861C7.64134 21.8957 7.102 21.8957 6.562 21.861C6.17338 21.8394 5.78657 21.7927 5.404 21.721C5.024 21.651 4.644 21.551 4.265 21.441C4.06196 21.3861 3.86444 21.3124 3.675 21.221C3.48451 21.1325 3.30128 21.0292 3.127 20.912C2.73585 20.6689 2.41253 20.3308 2.18716 19.9292C1.96179 19.5276 1.84168 19.0755 1.838 18.615C1.937 17.042 2.274 15.493 2.837 14.021L3.327 11.613L3.656 8.67699C3.8816 7.14696 4.31493 5.65486 4.944 4.24199C5.53574 2.92204 6.42413 1.75646 7.54 0.835995L7.73 1.15599C7.325 1.95799 7.01 2.80199 6.791 3.67299C6.55788 4.65988 6.38754 5.66056 6.281 6.66899C6.22336 7.20214 6.24696 7.74094 6.351 8.26699C6.39308 8.45046 6.47252 8.62329 6.58435 8.77469C6.69618 8.9261 6.83802 9.05283 7.001 9.14699C7.177 9.23099 7.36034 9.29433 7.551 9.33699C7.89 9.41699 8.279 9.44599 8.549 9.50599C9.159 9.61599 9.778 9.71599 10.397 9.77599C11.017 9.83599 11.625 9.88599 12.265 9.90599C13.27 9.93699 14.275 9.85399 15.261 9.65599C15.9463 9.50882 16.5929 9.21922 17.159 8.80599" fill="rgb(182, 231, 252)"/>
</g>
<defs>
<clipPath id="clip0_14_17">
<rect width="24" height="24" fill="rgb(182, 231, 252)"/>
</clipPath>
</defs>
</svg>
